<mxfile host="65bd71144e">
    <diagram id="-5IPHxlqQldBWp497B-Q" name="Page-1">
        <mxGraphModel dx="852" dy="779" grid="1" gridSize="10" guides="1" tooltips="1" connect="1" arrows="1" fold="1" page="1" pageScale="1" pageWidth="850" pageHeight="1100" math="0" shadow="0">
            <root>
                <mxCell id="0"/>
                <mxCell id="1" parent="0"/>
                <mxCell id="46" value="" style="rounded=0;whiteSpace=wrap;html=1;strokeColor=#F0F0F0;fillColor=#F0F0F0;movable=0;resizable=0;rotatable=0;deletable=0;editable=0;connectable=0;" vertex="1" parent="1">
                    <mxGeometry y="40" width="850" height="690" as="geometry"/>
                </mxCell>
                <mxCell id="40" style="html=1;exitX=0.25;exitY=0;exitDx=0;exitDy=0;endArrow=diamondThin;endFill=1;swimlaneLine=1;fontColor=#000000;labelBackgroundColor=none;fillColor=#eeeeee;strokeColor=#36393d;" edge="1" parent="1" source="3" target="31">
                    <mxGeometry relative="1" as="geometry"/>
                </mxCell>
                <mxCell id="41" style="html=1;exitX=0.5;exitY=0;exitDx=0;exitDy=0;endArrow=diamondThin;endFill=1;swimlaneLine=1;fontColor=#000000;labelBackgroundColor=none;fillColor=#eeeeee;strokeColor=#36393d;" edge="1" parent="1" source="3" target="19">
                    <mxGeometry relative="1" as="geometry">
                        <mxPoint x="400" y="410" as="targetPoint"/>
                    </mxGeometry>
                </mxCell>
                <mxCell id="42" style="html=1;exitX=0.75;exitY=0;exitDx=0;exitDy=0;endArrow=diamondThin;endFill=1;swimlaneLine=1;fontColor=#000000;labelBackgroundColor=none;fillColor=#eeeeee;strokeColor=#36393d;" edge="1" parent="1" source="3" target="27">
                    <mxGeometry relative="1" as="geometry">
                        <mxPoint x="530" y="400" as="targetPoint"/>
                    </mxGeometry>
                </mxCell>
                <mxCell id="43" style="html=1;exitX=1;exitY=0;exitDx=0;exitDy=0;endArrow=diamondThin;endFill=1;swimlaneLine=1;fontColor=#000000;labelBackgroundColor=none;fillColor=#eeeeee;strokeColor=#36393d;" edge="1" parent="1" source="3" target="23">
                    <mxGeometry relative="1" as="geometry">
                        <mxPoint x="650" y="380" as="targetPoint"/>
                    </mxGeometry>
                </mxCell>
                <mxCell id="3" value="Habilidades" style="swimlane;fontStyle=1;align=center;verticalAlign=top;childLayout=stackLayout;horizontal=1;startSize=26;horizontalStack=0;resizeParent=1;resizeParentMax=0;resizeLast=0;collapsible=1;marginBottom=0;swimlaneLine=1;labelBackgroundColor=none;fillColor=#eeeeee;strokeColor=#36393d;fontColor=#000000;" vertex="1" parent="1">
                    <mxGeometry x="320" y="476" width="170" height="74" as="geometry"/>
                </mxCell>
                <mxCell id="4" value="+ habilidad1: Array&lt;char&gt;&#10;+ habilidad2: Array&lt;char&gt;&#10;" style="text;align=left;verticalAlign=top;spacingLeft=4;spacingRight=4;overflow=hidden;rotatable=0;points=[[0,0.5],[1,0.5]];portConstraint=eastwest;swimlaneLine=1;labelBackgroundColor=none;fillColor=#eeeeee;strokeColor=#36393d;fontColor=#000000;" vertex="1" parent="3">
                    <mxGeometry y="26" width="170" height="40" as="geometry"/>
                </mxCell>
                <mxCell id="5" value="" style="line;strokeWidth=1;align=left;verticalAlign=middle;spacingTop=-1;spacingLeft=3;spacingRight=3;rotatable=0;labelPosition=right;points=[];portConstraint=eastwest;swimlaneLine=1;labelBackgroundColor=none;fillColor=#eeeeee;strokeColor=#36393d;fontColor=#000000;" vertex="1" parent="3">
                    <mxGeometry y="66" width="170" height="8" as="geometry"/>
                </mxCell>
                <mxCell id="11" value="Empleado" style="swimlane;fontStyle=1;align=center;verticalAlign=top;childLayout=stackLayout;horizontal=1;startSize=26;horizontalStack=0;resizeParent=1;resizeParentMax=0;resizeLast=0;collapsible=1;marginBottom=0;swimlaneLine=1;labelBackgroundColor=none;fillColor=#eeeeee;strokeColor=#36393d;fontColor=#000000;" vertex="1" parent="1">
                    <mxGeometry x="360" y="110" width="160" height="60" as="geometry"/>
                </mxCell>
                <mxCell id="13" value="" style="line;strokeWidth=1;align=left;verticalAlign=middle;spacingTop=-1;spacingLeft=3;spacingRight=3;rotatable=0;labelPosition=right;points=[];portConstraint=eastwest;swimlaneLine=1;labelBackgroundColor=none;fillColor=#eeeeee;strokeColor=#36393d;fontColor=#000000;" vertex="1" parent="11">
                    <mxGeometry y="26" width="160" height="8" as="geometry"/>
                </mxCell>
                <mxCell id="14" value="+imprime_cargo():void &#10;" style="text;align=left;verticalAlign=top;spacingLeft=4;spacingRight=4;overflow=hidden;rotatable=0;points=[[0,0.5],[1,0.5]];portConstraint=eastwest;swimlaneLine=1;labelBackgroundColor=none;fillColor=#eeeeee;strokeColor=#36393d;fontColor=#000000;" vertex="1" parent="11">
                    <mxGeometry y="34" width="160" height="26" as="geometry"/>
                </mxCell>
                <mxCell id="37" style="edgeStyle=none;html=1;exitX=0.75;exitY=0;exitDx=0;exitDy=0;endArrow=block;endFill=0;swimlaneLine=1;fontColor=#000000;labelBackgroundColor=none;fillColor=#eeeeee;strokeColor=#36393d;" edge="1" parent="1" source="19" target="11">
                    <mxGeometry relative="1" as="geometry"/>
                </mxCell>
                <mxCell id="19" value="Operario" style="swimlane;fontStyle=1;align=center;verticalAlign=top;childLayout=stackLayout;horizontal=1;startSize=26;horizontalStack=0;resizeParent=1;resizeParentMax=0;resizeLast=0;collapsible=1;marginBottom=0;swimlaneLine=1;labelBackgroundColor=none;fillColor=#eeeeee;strokeColor=#36393d;fontColor=#000000;" vertex="1" parent="1">
                    <mxGeometry x="240" y="280" width="160" height="78" as="geometry">
                        <mxRectangle x="240" y="280" width="90" height="30" as="alternateBounds"/>
                    </mxGeometry>
                </mxCell>
                <mxCell id="20" value="+dos:Habilidades " style="text;align=left;verticalAlign=top;spacingLeft=4;spacingRight=4;overflow=hidden;rotatable=0;points=[[0,0.5],[1,0.5]];portConstraint=eastwest;swimlaneLine=1;labelBackgroundColor=none;fillColor=#eeeeee;strokeColor=#36393d;fontColor=#000000;" vertex="1" parent="19">
                    <mxGeometry y="26" width="160" height="26" as="geometry"/>
                </mxCell>
                <mxCell id="22" value="+imprime_cargo():void " style="text;align=left;verticalAlign=top;spacingLeft=4;spacingRight=4;overflow=hidden;rotatable=0;points=[[0,0.5],[1,0.5]];portConstraint=eastwest;swimlaneLine=1;labelBackgroundColor=none;fillColor=#eeeeee;strokeColor=#36393d;fontColor=#000000;" vertex="1" parent="19">
                    <mxGeometry y="52" width="160" height="26" as="geometry"/>
                </mxCell>
                <mxCell id="39" style="edgeStyle=none;html=1;exitX=0.25;exitY=0;exitDx=0;exitDy=0;endArrow=block;endFill=0;swimlaneLine=1;fontColor=#000000;labelBackgroundColor=none;fillColor=#eeeeee;strokeColor=#36393d;" edge="1" parent="1" source="23" target="11">
                    <mxGeometry relative="1" as="geometry"/>
                </mxCell>
                <mxCell id="23" value="Directivo" style="swimlane;fontStyle=1;align=center;verticalAlign=top;childLayout=stackLayout;horizontal=1;startSize=26;horizontalStack=0;resizeParent=1;resizeParentMax=0;resizeLast=0;collapsible=1;marginBottom=0;swimlaneLine=1;labelBackgroundColor=none;fillColor=#eeeeee;strokeColor=#36393d;fontColor=#000000;" vertex="1" parent="1">
                    <mxGeometry x="640" y="280" width="160" height="78" as="geometry"/>
                </mxCell>
                <mxCell id="24" value="+ uno: Habilidades" style="text;align=left;verticalAlign=top;spacingLeft=4;spacingRight=4;overflow=hidden;rotatable=0;points=[[0,0.5],[1,0.5]];portConstraint=eastwest;swimlaneLine=1;labelBackgroundColor=none;fillColor=#eeeeee;strokeColor=#36393d;fontColor=#000000;" vertex="1" parent="23">
                    <mxGeometry y="26" width="160" height="26" as="geometry"/>
                </mxCell>
                <mxCell id="26" value="+imprime_cargo():void " style="text;align=left;verticalAlign=top;spacingLeft=4;spacingRight=4;overflow=hidden;rotatable=0;points=[[0,0.5],[1,0.5]];portConstraint=eastwest;swimlaneLine=1;labelBackgroundColor=none;fillColor=#eeeeee;strokeColor=#36393d;fontColor=#000000;" vertex="1" parent="23">
                    <mxGeometry y="52" width="160" height="26" as="geometry"/>
                </mxCell>
                <mxCell id="38" style="edgeStyle=none;html=1;exitX=0.25;exitY=0;exitDx=0;exitDy=0;endArrow=block;endFill=0;swimlaneLine=1;fontColor=#000000;labelBackgroundColor=none;fillColor=#eeeeee;strokeColor=#36393d;" edge="1" parent="1" source="27" target="11">
                    <mxGeometry relative="1" as="geometry"/>
                </mxCell>
                <mxCell id="27" value="Oficial" style="swimlane;fontStyle=1;align=center;verticalAlign=top;childLayout=stackLayout;horizontal=1;startSize=26;horizontalStack=0;resizeParent=1;resizeParentMax=0;resizeLast=0;collapsible=1;marginBottom=0;swimlaneLine=1;labelBackgroundColor=none;fillColor=#eeeeee;strokeColor=#36393d;fontColor=#000000;" vertex="1" parent="1">
                    <mxGeometry x="440" y="280" width="160" height="78" as="geometry"/>
                </mxCell>
                <mxCell id="28" value="+tres:Habilidades " style="text;align=left;verticalAlign=top;spacingLeft=4;spacingRight=4;overflow=hidden;rotatable=0;points=[[0,0.5],[1,0.5]];portConstraint=eastwest;swimlaneLine=1;labelBackgroundColor=none;fillColor=#eeeeee;strokeColor=#36393d;fontColor=#000000;" vertex="1" parent="27">
                    <mxGeometry y="26" width="160" height="26" as="geometry"/>
                </mxCell>
                <mxCell id="30" value="+imprime_cargo():void " style="text;align=left;verticalAlign=top;spacingLeft=4;spacingRight=4;overflow=hidden;rotatable=0;points=[[0,0.5],[1,0.5]];portConstraint=eastwest;swimlaneLine=1;labelBackgroundColor=none;fillColor=#eeeeee;strokeColor=#36393d;fontColor=#000000;" vertex="1" parent="27">
                    <mxGeometry y="52" width="160" height="26" as="geometry"/>
                </mxCell>
                <mxCell id="36" style="edgeStyle=none;html=1;exitX=1;exitY=0;exitDx=0;exitDy=0;endArrow=block;endFill=0;swimlaneLine=1;fontColor=#000000;labelBackgroundColor=none;fillColor=#eeeeee;strokeColor=#36393d;" edge="1" parent="1" source="31" target="11">
                    <mxGeometry relative="1" as="geometry">
                        <mxPoint x="330" y="190" as="targetPoint"/>
                    </mxGeometry>
                </mxCell>
                <mxCell id="31" value="Tecnico" style="swimlane;fontStyle=1;align=center;verticalAlign=top;childLayout=stackLayout;horizontal=1;startSize=26;horizontalStack=0;resizeParent=1;resizeParentMax=0;resizeLast=0;collapsible=1;marginBottom=0;swimlaneLine=1;labelBackgroundColor=none;fillColor=#eeeeee;strokeColor=#36393d;fontColor=#000000;" vertex="1" parent="1">
                    <mxGeometry x="40" y="280" width="160" height="78" as="geometry"/>
                </mxCell>
                <mxCell id="32" value="+cuatro:Habilidades " style="text;align=left;verticalAlign=top;spacingLeft=4;spacingRight=4;overflow=hidden;rotatable=0;points=[[0,0.5],[1,0.5]];portConstraint=eastwest;swimlaneLine=1;labelBackgroundColor=none;fillColor=#eeeeee;strokeColor=#36393d;fontColor=#000000;" vertex="1" parent="31">
                    <mxGeometry y="26" width="160" height="26" as="geometry"/>
                </mxCell>
                <mxCell id="34" value="+imprime_cargo():void " style="text;align=left;verticalAlign=top;spacingLeft=4;spacingRight=4;overflow=hidden;rotatable=0;points=[[0,0.5],[1,0.5]];portConstraint=eastwest;swimlaneLine=1;labelBackgroundColor=none;fillColor=#eeeeee;strokeColor=#36393d;fontColor=#000000;" vertex="1" parent="31">
                    <mxGeometry y="52" width="160" height="26" as="geometry"/>
                </mxCell>
            </root>
        </mxGraphModel>
    </diagram>
</mxfile>